<mxfile host="app.diagrams.net" modified="2023-09-19T16:47:59.041Z" agent="Mozilla/5.0 (X11; Ubuntu; Linux x86_64; rv:109.0) Gecko/20100101 Firefox/117.0" etag="W6sm8Lx9ec5RcoTsYE7n" version="21.7.5" type="device">
  <diagram name="Page-1" id="ri4anvCGel_wYtRjSs9z">
    <mxGraphModel dx="1224" dy="913" grid="1" gridSize="10" guides="1" tooltips="1" connect="1" arrows="1" fold="1" page="1" pageScale="1" pageWidth="827" pageHeight="1169" math="0" shadow="0">
      <root>
        <mxCell id="0" />
        <mxCell id="1" parent="0" />
        <mxCell id="axa9aI5JRP2yP6maxEfe-58" style="edgeStyle=orthogonalEdgeStyle;rounded=0;orthogonalLoop=1;jettySize=auto;html=1;exitX=0.952;exitY=1.157;exitDx=0;exitDy=0;entryX=0.5;entryY=0;entryDx=0;entryDy=0;endArrow=none;endFill=0;exitPerimeter=0;" parent="1" source="vQDiU9HeTUrOOh70G-Bs-12" target="axa9aI5JRP2yP6maxEfe-17" edge="1">
          <mxGeometry relative="1" as="geometry" />
        </mxCell>
        <mxCell id="axa9aI5JRP2yP6maxEfe-81" style="edgeStyle=orthogonalEdgeStyle;rounded=0;orthogonalLoop=1;jettySize=auto;html=1;exitX=0.75;exitY=1;exitDx=0;exitDy=0;entryX=0.5;entryY=0;entryDx=0;entryDy=0;endArrow=none;endFill=0;" parent="1" source="vQDiU9HeTUrOOh70G-Bs-10" target="axa9aI5JRP2yP6maxEfe-1" edge="1">
          <mxGeometry relative="1" as="geometry" />
        </mxCell>
        <mxCell id="vQDiU9HeTUrOOh70G-Bs-10" value="Photographie" style="swimlane;fontStyle=0;childLayout=stackLayout;horizontal=1;startSize=30;horizontalStack=0;resizeParent=1;resizeParentMax=0;resizeLast=0;collapsible=1;marginBottom=0;whiteSpace=wrap;html=1;fillColor=#dae8fc;strokeColor=#000000;" parent="1" vertex="1">
          <mxGeometry x="400" y="210" width="140" height="150" as="geometry" />
        </mxCell>
        <mxCell id="vQDiU9HeTUrOOh70G-Bs-11" value="&lt;u&gt;Code&lt;/u&gt; : Integer" style="text;strokeColor=default;fillColor=#dae8fc;align=left;verticalAlign=middle;spacingLeft=4;spacingRight=4;overflow=hidden;points=[[0,0.5],[1,0.5]];portConstraint=eastwest;rotatable=0;whiteSpace=wrap;html=1;" parent="vQDiU9HeTUrOOh70G-Bs-10" vertex="1">
          <mxGeometry y="30" width="140" height="30" as="geometry" />
        </mxCell>
        <mxCell id="vQDiU9HeTUrOOh70G-Bs-12" value="&lt;div&gt;Lieu : String&lt;br&gt;&lt;/div&gt;" style="text;strokeColor=none;fillColor=#dae8fc;align=left;verticalAlign=middle;spacingLeft=4;spacingRight=4;overflow=hidden;points=[[0,0.5],[1,0.5]];portConstraint=eastwest;rotatable=0;whiteSpace=wrap;html=1;" parent="vQDiU9HeTUrOOh70G-Bs-10" vertex="1">
          <mxGeometry y="60" width="140" height="30" as="geometry" />
        </mxCell>
        <mxCell id="vQDiU9HeTUrOOh70G-Bs-13" value="Date réalisation : Date" style="text;strokeColor=none;fillColor=#dae8fc;align=left;verticalAlign=middle;spacingLeft=4;spacingRight=4;overflow=hidden;points=[[0,0.5],[1,0.5]];portConstraint=eastwest;rotatable=0;whiteSpace=wrap;html=1;" parent="vQDiU9HeTUrOOh70G-Bs-10" vertex="1">
          <mxGeometry y="90" width="140" height="30" as="geometry" />
        </mxCell>
        <mxCell id="vQDiU9HeTUrOOh70G-Bs-14" value="Licence : String" style="text;strokeColor=none;fillColor=#dae8fc;align=left;verticalAlign=middle;spacingLeft=4;spacingRight=4;overflow=hidden;points=[[0,0.5],[1,0.5]];portConstraint=eastwest;rotatable=0;whiteSpace=wrap;html=1;" parent="vQDiU9HeTUrOOh70G-Bs-10" vertex="1">
          <mxGeometry y="120" width="140" height="30" as="geometry" />
        </mxCell>
        <mxCell id="vQDiU9HeTUrOOh70G-Bs-16" value="" style="edgeStyle=orthogonalEdgeStyle;rounded=0;orthogonalLoop=1;jettySize=auto;html=1;endArrow=none;endFill=0;entryX=0;entryY=0.5;entryDx=0;entryDy=0;exitX=1;exitY=0.5;exitDx=0;exitDy=0;" parent="1" source="vQDiU9HeTUrOOh70G-Bs-15" target="vQDiU9HeTUrOOh70G-Bs-12" edge="1">
          <mxGeometry relative="1" as="geometry">
            <mxPoint x="430" y="295" as="targetPoint" />
          </mxGeometry>
        </mxCell>
        <mxCell id="vQDiU9HeTUrOOh70G-Bs-22" value="" style="edgeStyle=orthogonalEdgeStyle;rounded=0;orthogonalLoop=1;jettySize=auto;html=1;entryX=1.007;entryY=-0.133;entryDx=0;entryDy=0;entryPerimeter=0;endArrow=none;endFill=0;exitX=0;exitY=0.5;exitDx=0;exitDy=0;" parent="1" source="vQDiU9HeTUrOOh70G-Bs-15" target="vQDiU9HeTUrOOh70G-Bs-20" edge="1">
          <mxGeometry relative="1" as="geometry" />
        </mxCell>
        <mxCell id="vQDiU9HeTUrOOh70G-Bs-15" value="possède" style="ellipse;whiteSpace=wrap;html=1;fillColor=#ffe6cc;strokeColor=#d79b00;" parent="1" vertex="1">
          <mxGeometry x="280" y="160" width="80" height="30" as="geometry" />
        </mxCell>
        <mxCell id="vQDiU9HeTUrOOh70G-Bs-17" value="Configuration" style="swimlane;fontStyle=0;childLayout=stackLayout;horizontal=1;startSize=30;horizontalStack=0;resizeParent=1;resizeParentMax=0;resizeLast=0;collapsible=1;marginBottom=0;whiteSpace=wrap;html=1;fillColor=#dae8fc;strokeColor=#000000;" parent="1" vertex="1">
          <mxGeometry x="50" y="140" width="140" height="150" as="geometry" />
        </mxCell>
        <mxCell id="vQDiU9HeTUrOOh70G-Bs-18" value="&lt;div&gt;&lt;u&gt;IdConf&lt;/u&gt; : Integer&lt;/div&gt;" style="text;strokeColor=default;fillColor=#dae8fc;align=left;verticalAlign=middle;spacingLeft=4;spacingRight=4;overflow=hidden;points=[[0,0.5],[1,0.5]];portConstraint=eastwest;rotatable=0;whiteSpace=wrap;html=1;" parent="vQDiU9HeTUrOOh70G-Bs-17" vertex="1">
          <mxGeometry y="30" width="140" height="30" as="geometry" />
        </mxCell>
        <mxCell id="vQDiU9HeTUrOOh70G-Bs-19" value="Ouverture focale: Integer" style="text;strokeColor=none;fillColor=#dae8fc;align=left;verticalAlign=middle;spacingLeft=4;spacingRight=4;overflow=hidden;points=[[0,0.5],[1,0.5]];portConstraint=eastwest;rotatable=0;whiteSpace=wrap;html=1;" parent="vQDiU9HeTUrOOh70G-Bs-17" vertex="1">
          <mxGeometry y="60" width="140" height="30" as="geometry" />
        </mxCell>
        <mxCell id="vQDiU9HeTUrOOh70G-Bs-20" value="Temps exposition: String" style="text;strokeColor=none;fillColor=#dae8fc;align=left;verticalAlign=middle;spacingLeft=4;spacingRight=4;overflow=hidden;points=[[0,0.5],[1,0.5]];portConstraint=eastwest;rotatable=0;whiteSpace=wrap;html=1;" parent="vQDiU9HeTUrOOh70G-Bs-17" vertex="1">
          <mxGeometry y="90" width="140" height="30" as="geometry" />
        </mxCell>
        <mxCell id="vQDiU9HeTUrOOh70G-Bs-21" value="Flash: Integer" style="text;strokeColor=none;fillColor=#dae8fc;align=left;verticalAlign=middle;spacingLeft=4;spacingRight=4;overflow=hidden;points=[[0,0.5],[1,0.5]];portConstraint=eastwest;rotatable=0;whiteSpace=wrap;html=1;" parent="vQDiU9HeTUrOOh70G-Bs-17" vertex="1">
          <mxGeometry y="120" width="140" height="30" as="geometry" />
        </mxCell>
        <mxCell id="vQDiU9HeTUrOOh70G-Bs-24" value="&lt;b&gt;1,1&lt;/b&gt;" style="text;html=1;strokeColor=none;fillColor=none;align=center;verticalAlign=middle;whiteSpace=wrap;rounded=0;" parent="1" vertex="1">
          <mxGeometry x="190" y="200" width="60" height="20" as="geometry" />
        </mxCell>
        <mxCell id="vQDiU9HeTUrOOh70G-Bs-28" value="&lt;b&gt;1, n&lt;br&gt;&lt;/b&gt;" style="text;html=1;strokeColor=none;fillColor=none;align=center;verticalAlign=middle;whiteSpace=wrap;rounded=0;" parent="1" vertex="1">
          <mxGeometry x="330" y="265" width="60" height="20" as="geometry" />
        </mxCell>
        <mxCell id="vQDiU9HeTUrOOh70G-Bs-29" value="Appareil" style="swimlane;fontStyle=0;childLayout=stackLayout;horizontal=1;startSize=30;horizontalStack=0;resizeParent=1;resizeParentMax=0;resizeLast=0;collapsible=1;marginBottom=0;whiteSpace=wrap;html=1;fillColor=#dae8fc;strokeColor=#000000;" parent="1" vertex="1">
          <mxGeometry x="680" y="155" width="140" height="90" as="geometry" />
        </mxCell>
        <mxCell id="vQDiU9HeTUrOOh70G-Bs-30" value="&lt;u&gt;Identifiant&lt;/u&gt; : Integer" style="text;strokeColor=default;fillColor=#dae8fc;align=left;verticalAlign=middle;spacingLeft=4;spacingRight=4;overflow=hidden;points=[[0,0.5],[1,0.5]];portConstraint=eastwest;rotatable=0;whiteSpace=wrap;html=1;" parent="vQDiU9HeTUrOOh70G-Bs-29" vertex="1">
          <mxGeometry y="30" width="140" height="30" as="geometry" />
        </mxCell>
        <mxCell id="vQDiU9HeTUrOOh70G-Bs-31" value="marque : String" style="text;strokeColor=none;fillColor=#dae8fc;align=left;verticalAlign=middle;spacingLeft=4;spacingRight=4;overflow=hidden;points=[[0,0.5],[1,0.5]];portConstraint=eastwest;rotatable=0;whiteSpace=wrap;html=1;" parent="vQDiU9HeTUrOOh70G-Bs-29" vertex="1">
          <mxGeometry y="60" width="140" height="30" as="geometry" />
        </mxCell>
        <mxCell id="axa9aI5JRP2yP6maxEfe-45" style="edgeStyle=orthogonalEdgeStyle;rounded=0;orthogonalLoop=1;jettySize=auto;html=1;exitX=1;exitY=0.5;exitDx=0;exitDy=0;entryX=0.011;entryY=0.108;entryDx=0;entryDy=0;entryPerimeter=0;endArrow=none;endFill=0;" parent="1" source="vQDiU9HeTUrOOh70G-Bs-34" target="vQDiU9HeTUrOOh70G-Bs-29" edge="1">
          <mxGeometry relative="1" as="geometry" />
        </mxCell>
        <mxCell id="5bwaejOtSmUbjBA8IvDs-20" style="edgeStyle=orthogonalEdgeStyle;rounded=0;orthogonalLoop=1;jettySize=auto;html=1;exitX=0;exitY=0.5;exitDx=0;exitDy=0;entryX=0.421;entryY=-0.013;entryDx=0;entryDy=0;entryPerimeter=0;endArrow=none;endFill=0;" edge="1" parent="1" source="vQDiU9HeTUrOOh70G-Bs-34" target="vQDiU9HeTUrOOh70G-Bs-10">
          <mxGeometry relative="1" as="geometry" />
        </mxCell>
        <mxCell id="vQDiU9HeTUrOOh70G-Bs-34" value="est prise" style="ellipse;whiteSpace=wrap;html=1;fillColor=#ffe6cc;strokeColor=#d79b00;" parent="1" vertex="1">
          <mxGeometry x="540" y="150" width="80" height="30" as="geometry" />
        </mxCell>
        <mxCell id="vQDiU9HeTUrOOh70G-Bs-42" value="&lt;b&gt;1, n&lt;br&gt;&lt;/b&gt;" style="text;html=1;strokeColor=none;fillColor=none;align=center;verticalAlign=middle;whiteSpace=wrap;rounded=0;" parent="1" vertex="1">
          <mxGeometry x="470" y="180" width="30" height="20" as="geometry" />
        </mxCell>
        <mxCell id="axa9aI5JRP2yP6maxEfe-55" style="edgeStyle=orthogonalEdgeStyle;rounded=0;orthogonalLoop=1;jettySize=auto;html=1;exitX=0.75;exitY=0;exitDx=0;exitDy=0;entryX=0.371;entryY=1.059;entryDx=0;entryDy=0;entryPerimeter=0;endArrow=none;endFill=0;" parent="1" source="Xazr9b2hqAeC7u9Wwyo1-1" target="axa9aI5JRP2yP6maxEfe-1" edge="1">
          <mxGeometry relative="1" as="geometry" />
        </mxCell>
        <mxCell id="axa9aI5JRP2yP6maxEfe-63" style="edgeStyle=orthogonalEdgeStyle;rounded=0;orthogonalLoop=1;jettySize=auto;html=1;exitX=1.007;exitY=0.145;exitDx=0;exitDy=0;entryX=0;entryY=1;entryDx=0;entryDy=0;exitPerimeter=0;endArrow=none;endFill=0;" parent="1" source="Xazr9b2hqAeC7u9Wwyo1-1" target="axa9aI5JRP2yP6maxEfe-17" edge="1">
          <mxGeometry relative="1" as="geometry">
            <Array as="points">
              <mxPoint x="484" y="480" />
              <mxPoint x="580" y="480" />
              <mxPoint x="580" y="310" />
            </Array>
          </mxGeometry>
        </mxCell>
        <mxCell id="uyb0U9lrVmD0LcWtQPzE-3" style="edgeStyle=orthogonalEdgeStyle;rounded=0;orthogonalLoop=1;jettySize=auto;html=1;exitX=0.5;exitY=0;exitDx=0;exitDy=0;entryX=0.5;entryY=1;entryDx=0;entryDy=0;endArrow=none;endFill=0;" parent="1" source="Xazr9b2hqAeC7u9Wwyo1-1" target="uyb0U9lrVmD0LcWtQPzE-2" edge="1">
          <mxGeometry relative="1" as="geometry" />
        </mxCell>
        <mxCell id="5bwaejOtSmUbjBA8IvDs-6" style="edgeStyle=orthogonalEdgeStyle;rounded=0;orthogonalLoop=1;jettySize=auto;html=1;exitX=0.25;exitY=1;exitDx=0;exitDy=0;entryX=0;entryY=0.5;entryDx=0;entryDy=0;endArrow=none;endFill=0;" edge="1" parent="1" source="Xazr9b2hqAeC7u9Wwyo1-1" target="uyb0U9lrVmD0LcWtQPzE-8">
          <mxGeometry relative="1" as="geometry" />
        </mxCell>
        <mxCell id="Xazr9b2hqAeC7u9Wwyo1-1" value="Utlisateur" style="swimlane;fontStyle=0;childLayout=stackLayout;horizontal=1;startSize=30;horizontalStack=0;resizeParent=1;resizeParentMax=0;resizeLast=0;collapsible=1;marginBottom=0;whiteSpace=wrap;html=1;fillColor=#dae8fc;strokeColor=#000000;" parent="1" vertex="1">
          <mxGeometry x="324" y="465" width="140" height="90" as="geometry" />
        </mxCell>
        <mxCell id="Xazr9b2hqAeC7u9Wwyo1-2" value="&lt;u&gt;Identifiant&lt;/u&gt;: Integer" style="text;strokeColor=default;fillColor=#dae8fc;align=left;verticalAlign=middle;spacingLeft=4;spacingRight=4;overflow=hidden;points=[[0,0.5],[1,0.5]];portConstraint=eastwest;rotatable=0;whiteSpace=wrap;html=1;" parent="Xazr9b2hqAeC7u9Wwyo1-1" vertex="1">
          <mxGeometry y="30" width="140" height="30" as="geometry" />
        </mxCell>
        <mxCell id="Xazr9b2hqAeC7u9Wwyo1-62" value="Nom&lt;span style=&quot;white-space: pre;&quot;&gt;&#x9;&lt;/span&gt;:String" style="text;strokeColor=default;fillColor=#dae8fc;align=left;verticalAlign=middle;spacingLeft=4;spacingRight=4;overflow=hidden;points=[[0,0.5],[1,0.5]];portConstraint=eastwest;rotatable=0;whiteSpace=wrap;html=1;" parent="Xazr9b2hqAeC7u9Wwyo1-1" vertex="1">
          <mxGeometry y="60" width="140" height="30" as="geometry" />
        </mxCell>
        <mxCell id="Xazr9b2hqAeC7u9Wwyo1-8" value="" style="edgeStyle=orthogonalEdgeStyle;rounded=0;orthogonalLoop=1;jettySize=auto;html=1;entryX=0.25;entryY=0;entryDx=0;entryDy=0;endArrow=none;endFill=0;" parent="1" source="Xazr9b2hqAeC7u9Wwyo1-7" target="Xazr9b2hqAeC7u9Wwyo1-1" edge="1">
          <mxGeometry relative="1" as="geometry" />
        </mxCell>
        <mxCell id="5bwaejOtSmUbjBA8IvDs-10" style="edgeStyle=orthogonalEdgeStyle;rounded=0;orthogonalLoop=1;jettySize=auto;html=1;exitX=0.5;exitY=0;exitDx=0;exitDy=0;entryX=-0.014;entryY=0.833;entryDx=0;entryDy=0;entryPerimeter=0;endArrow=none;endFill=0;" edge="1" parent="1" source="Xazr9b2hqAeC7u9Wwyo1-7" target="vQDiU9HeTUrOOh70G-Bs-14">
          <mxGeometry relative="1" as="geometry" />
        </mxCell>
        <mxCell id="Xazr9b2hqAeC7u9Wwyo1-7" value="est publié" style="ellipse;whiteSpace=wrap;html=1;fillColor=#ffe6cc;strokeColor=#d79b00;" parent="1" vertex="1">
          <mxGeometry x="282.5" y="375" width="80" height="30" as="geometry" />
        </mxCell>
        <mxCell id="Xazr9b2hqAeC7u9Wwyo1-13" value="&lt;b&gt;1, n&lt;br&gt;&lt;/b&gt;" style="text;html=1;strokeColor=none;fillColor=none;align=center;verticalAlign=middle;whiteSpace=wrap;rounded=0;" parent="1" vertex="1">
          <mxGeometry x="330" y="445" width="30" height="20" as="geometry" />
        </mxCell>
        <mxCell id="Xazr9b2hqAeC7u9Wwyo1-36" style="edgeStyle=orthogonalEdgeStyle;rounded=0;orthogonalLoop=1;jettySize=auto;html=1;exitX=0.5;exitY=1;exitDx=0;exitDy=0;entryX=0.25;entryY=0;entryDx=0;entryDy=0;endArrow=block;endFill=0;strokeWidth=1;endSize=20;" parent="1" source="Xazr9b2hqAeC7u9Wwyo1-21" target="Xazr9b2hqAeC7u9Wwyo1-32" edge="1">
          <mxGeometry relative="1" as="geometry" />
        </mxCell>
        <mxCell id="Xazr9b2hqAeC7u9Wwyo1-61" style="edgeStyle=orthogonalEdgeStyle;rounded=0;orthogonalLoop=1;jettySize=auto;html=1;exitX=0.25;exitY=1;exitDx=0;exitDy=0;entryX=0.5;entryY=0;entryDx=0;entryDy=0;endArrow=block;endFill=0;endSize=20;" parent="1" source="Xazr9b2hqAeC7u9Wwyo1-21" target="Xazr9b2hqAeC7u9Wwyo1-38" edge="1">
          <mxGeometry relative="1" as="geometry" />
        </mxCell>
        <mxCell id="Xazr9b2hqAeC7u9Wwyo1-21" value="Collection" style="swimlane;fontStyle=0;childLayout=stackLayout;horizontal=1;startSize=30;horizontalStack=0;resizeParent=1;resizeParentMax=0;resizeLast=0;collapsible=1;marginBottom=0;whiteSpace=wrap;html=1;fillColor=#dae8fc;strokeColor=#000000;" parent="1" vertex="1">
          <mxGeometry x="40" y="320" width="140" height="90" as="geometry" />
        </mxCell>
        <mxCell id="Xazr9b2hqAeC7u9Wwyo1-22" value="&lt;u&gt;Identifiant&lt;/u&gt; : Integer" style="text;strokeColor=default;fillColor=#dae8fc;align=left;verticalAlign=middle;spacingLeft=4;spacingRight=4;overflow=hidden;points=[[0,0.5],[1,0.5]];portConstraint=eastwest;rotatable=0;whiteSpace=wrap;html=1;" parent="Xazr9b2hqAeC7u9Wwyo1-21" vertex="1">
          <mxGeometry y="30" width="140" height="30" as="geometry" />
        </mxCell>
        <mxCell id="Xazr9b2hqAeC7u9Wwyo1-23" value="Nom : String" style="text;strokeColor=none;fillColor=#dae8fc;align=left;verticalAlign=middle;spacingLeft=4;spacingRight=4;overflow=hidden;points=[[0,0.5],[1,0.5]];portConstraint=eastwest;rotatable=0;whiteSpace=wrap;html=1;" parent="Xazr9b2hqAeC7u9Wwyo1-21" vertex="1">
          <mxGeometry y="60" width="140" height="30" as="geometry" />
        </mxCell>
        <mxCell id="Xazr9b2hqAeC7u9Wwyo1-26" style="edgeStyle=orthogonalEdgeStyle;rounded=0;orthogonalLoop=1;jettySize=auto;html=1;exitX=0;exitY=0.5;exitDx=0;exitDy=0;entryX=1.032;entryY=0.116;entryDx=0;entryDy=0;endArrow=none;endFill=0;entryPerimeter=0;" parent="1" source="Xazr9b2hqAeC7u9Wwyo1-24" target="Xazr9b2hqAeC7u9Wwyo1-21" edge="1">
          <mxGeometry relative="1" as="geometry" />
        </mxCell>
        <mxCell id="Xazr9b2hqAeC7u9Wwyo1-24" value="est rangé" style="ellipse;whiteSpace=wrap;html=1;fillColor=#ffe6cc;strokeColor=#d79b00;" parent="1" vertex="1">
          <mxGeometry x="230" y="285" width="80" height="30" as="geometry" />
        </mxCell>
        <mxCell id="Xazr9b2hqAeC7u9Wwyo1-25" style="edgeStyle=orthogonalEdgeStyle;rounded=0;orthogonalLoop=1;jettySize=auto;html=1;exitX=0;exitY=0.5;exitDx=0;exitDy=0;entryX=1;entryY=0.5;entryDx=0;entryDy=0;endArrow=none;endFill=0;" parent="1" source="vQDiU9HeTUrOOh70G-Bs-13" target="Xazr9b2hqAeC7u9Wwyo1-24" edge="1">
          <mxGeometry relative="1" as="geometry" />
        </mxCell>
        <mxCell id="Xazr9b2hqAeC7u9Wwyo1-27" value="&lt;b&gt;1, n&lt;br&gt;&lt;/b&gt;" style="text;html=1;strokeColor=none;fillColor=none;align=center;verticalAlign=middle;whiteSpace=wrap;rounded=0;" parent="1" vertex="1">
          <mxGeometry x="370" y="320" width="30" height="20" as="geometry" />
        </mxCell>
        <mxCell id="Xazr9b2hqAeC7u9Wwyo1-30" value="&lt;b&gt;0, n&lt;br&gt;&lt;/b&gt;" style="text;html=1;strokeColor=none;fillColor=none;align=center;verticalAlign=middle;whiteSpace=wrap;rounded=0;" parent="1" vertex="1">
          <mxGeometry x="190" y="305" width="30" height="20" as="geometry" />
        </mxCell>
        <mxCell id="Xazr9b2hqAeC7u9Wwyo1-32" value="Album" style="swimlane;fontStyle=0;childLayout=stackLayout;horizontal=1;startSize=30;horizontalStack=0;resizeParent=1;resizeParentMax=0;resizeLast=0;collapsible=1;marginBottom=0;whiteSpace=wrap;html=1;fillColor=#dae8fc;strokeColor=#000000;" parent="1" vertex="1">
          <mxGeometry x="140" y="520" width="110" height="60" as="geometry" />
        </mxCell>
        <mxCell id="Xazr9b2hqAeC7u9Wwyo1-34" value="Identifiant : Integer" style="text;strokeColor=none;fillColor=#dae8fc;align=left;verticalAlign=middle;spacingLeft=4;spacingRight=4;overflow=hidden;points=[[0,0.5],[1,0.5]];portConstraint=eastwest;rotatable=0;whiteSpace=wrap;html=1;" parent="Xazr9b2hqAeC7u9Wwyo1-32" vertex="1">
          <mxGeometry y="30" width="110" height="30" as="geometry" />
        </mxCell>
        <mxCell id="Xazr9b2hqAeC7u9Wwyo1-38" value="Galerie" style="swimlane;fontStyle=0;childLayout=stackLayout;horizontal=1;startSize=30;horizontalStack=0;resizeParent=1;resizeParentMax=0;resizeLast=0;collapsible=1;marginBottom=0;whiteSpace=wrap;html=1;fillColor=#dae8fc;strokeColor=#000000;" parent="1" vertex="1">
          <mxGeometry x="20" y="520" width="110" height="60" as="geometry" />
        </mxCell>
        <mxCell id="Xazr9b2hqAeC7u9Wwyo1-39" value="Identifiant : Integer" style="text;strokeColor=none;fillColor=#dae8fc;align=left;verticalAlign=middle;spacingLeft=4;spacingRight=4;overflow=hidden;points=[[0,0.5],[1,0.5]];portConstraint=eastwest;rotatable=0;whiteSpace=wrap;html=1;" parent="Xazr9b2hqAeC7u9Wwyo1-38" vertex="1">
          <mxGeometry y="30" width="110" height="30" as="geometry" />
        </mxCell>
        <mxCell id="5bwaejOtSmUbjBA8IvDs-1" style="edgeStyle=orthogonalEdgeStyle;rounded=0;orthogonalLoop=1;jettySize=auto;html=1;exitX=0.5;exitY=1;exitDx=0;exitDy=0;entryX=0.007;entryY=0.233;entryDx=0;entryDy=0;entryPerimeter=0;endArrow=none;endFill=0;" edge="1" parent="1" source="Xazr9b2hqAeC7u9Wwyo1-46" target="Xazr9b2hqAeC7u9Wwyo1-2">
          <mxGeometry relative="1" as="geometry" />
        </mxCell>
        <mxCell id="Xazr9b2hqAeC7u9Wwyo1-46" value="appartient" style="ellipse;whiteSpace=wrap;html=1;fillColor=#ffe6cc;strokeColor=#d79b00;" parent="1" vertex="1">
          <mxGeometry x="210" y="405" width="80" height="30" as="geometry" />
        </mxCell>
        <mxCell id="Xazr9b2hqAeC7u9Wwyo1-52" value="&lt;b&gt;1, 1&lt;br&gt;&lt;/b&gt;" style="text;html=1;strokeColor=none;fillColor=none;align=center;verticalAlign=middle;whiteSpace=wrap;rounded=0;" parent="1" vertex="1">
          <mxGeometry x="294" y="480" width="30" height="20" as="geometry" />
        </mxCell>
        <mxCell id="Xazr9b2hqAeC7u9Wwyo1-50" value="&lt;b&gt;0, n&lt;br&gt;&lt;/b&gt;" style="text;html=1;strokeColor=none;fillColor=none;align=center;verticalAlign=middle;whiteSpace=wrap;rounded=0;" parent="1" vertex="1">
          <mxGeometry x="180" y="365" width="30" height="20" as="geometry" />
        </mxCell>
        <mxCell id="axa9aI5JRP2yP6maxEfe-1" value="est visualisé" style="ellipse;whiteSpace=wrap;html=1;fillColor=#ffe6cc;strokeColor=#d79b00;" parent="1" vertex="1">
          <mxGeometry x="464" y="385" width="80" height="30" as="geometry" />
        </mxCell>
        <mxCell id="vQDiU9HeTUrOOh70G-Bs-43" value="&lt;b&gt;1, 1&lt;br&gt;&lt;/b&gt;" style="text;html=1;strokeColor=none;fillColor=none;align=center;verticalAlign=middle;whiteSpace=wrap;rounded=0;" parent="1" vertex="1">
          <mxGeometry x="650" y="170" width="30" height="20" as="geometry" />
        </mxCell>
        <mxCell id="axa9aI5JRP2yP6maxEfe-12" value="&lt;b&gt;0, n&lt;br&gt;&lt;/b&gt;" style="text;html=1;strokeColor=none;fillColor=none;align=center;verticalAlign=middle;whiteSpace=wrap;rounded=0;" parent="1" vertex="1">
          <mxGeometry x="436" y="445" width="30" height="20" as="geometry" />
        </mxCell>
        <mxCell id="uyb0U9lrVmD0LcWtQPzE-13" style="edgeStyle=orthogonalEdgeStyle;rounded=0;orthogonalLoop=1;jettySize=auto;html=1;exitX=1;exitY=1;exitDx=0;exitDy=0;entryX=0;entryY=0.5;entryDx=0;entryDy=0;" parent="1" source="axa9aI5JRP2yP6maxEfe-17" target="axa9aI5JRP2yP6maxEfe-32" edge="1">
          <mxGeometry relative="1" as="geometry" />
        </mxCell>
        <mxCell id="axa9aI5JRP2yP6maxEfe-17" value="effectue" style="ellipse;whiteSpace=wrap;html=1;fillColor=#ffe6cc;strokeColor=#d79b00;" parent="1" vertex="1">
          <mxGeometry x="660" y="375" width="80" height="30" as="geometry" />
        </mxCell>
        <mxCell id="axa9aI5JRP2yP6maxEfe-20" value="&lt;b&gt;1, 1&lt;br&gt;&lt;/b&gt;" style="text;html=1;strokeColor=none;fillColor=none;align=center;verticalAlign=middle;whiteSpace=wrap;rounded=0;" parent="1" vertex="1">
          <mxGeometry x="540" y="275" width="30" height="20" as="geometry" />
        </mxCell>
        <mxCell id="axa9aI5JRP2yP6maxEfe-25" value="&lt;b&gt;1, 1&lt;br&gt;&lt;/b&gt;" style="text;html=1;strokeColor=none;fillColor=none;align=center;verticalAlign=middle;whiteSpace=wrap;rounded=0;" parent="1" vertex="1">
          <mxGeometry x="464" y="480" width="30" height="20" as="geometry" />
        </mxCell>
        <mxCell id="axa9aI5JRP2yP6maxEfe-80" style="edgeStyle=orthogonalEdgeStyle;rounded=0;orthogonalLoop=1;jettySize=auto;html=1;exitX=0.5;exitY=0;exitDx=0;exitDy=0;entryX=0.708;entryY=1;entryDx=0;entryDy=0;entryPerimeter=0;endArrow=block;endFill=0;endSize=20;" parent="1" source="axa9aI5JRP2yP6maxEfe-32" target="axa9aI5JRP2yP6maxEfe-78" edge="1">
          <mxGeometry relative="1" as="geometry" />
        </mxCell>
        <mxCell id="axa9aI5JRP2yP6maxEfe-32" value="Commentaire" style="swimlane;fontStyle=0;childLayout=stackLayout;horizontal=1;startSize=30;horizontalStack=0;resizeParent=1;resizeParentMax=0;resizeLast=0;collapsible=1;marginBottom=0;whiteSpace=wrap;html=1;fillColor=#dae8fc;strokeColor=#000000;" parent="1" vertex="1">
          <mxGeometry x="840" y="415" width="90" height="60" as="geometry" />
        </mxCell>
        <mxCell id="axa9aI5JRP2yP6maxEfe-33" value="&lt;u&gt;Identifiant&lt;/u&gt; : Integer" style="text;strokeColor=default;fillColor=#dae8fc;align=left;verticalAlign=middle;spacingLeft=4;spacingRight=4;overflow=hidden;points=[[0,0.5],[1,0.5]];portConstraint=eastwest;rotatable=0;whiteSpace=wrap;html=1;" parent="axa9aI5JRP2yP6maxEfe-32" vertex="1">
          <mxGeometry y="30" width="90" height="30" as="geometry" />
        </mxCell>
        <mxCell id="axa9aI5JRP2yP6maxEfe-74" style="edgeStyle=orthogonalEdgeStyle;rounded=0;orthogonalLoop=1;jettySize=auto;html=1;exitX=1;exitY=0;exitDx=0;exitDy=0;entryX=0.5;entryY=1;entryDx=0;entryDy=0;endArrow=none;endFill=0;" parent="1" source="axa9aI5JRP2yP6maxEfe-37" target="axa9aI5JRP2yP6maxEfe-32" edge="1">
          <mxGeometry relative="1" as="geometry" />
        </mxCell>
        <mxCell id="axa9aI5JRP2yP6maxEfe-37" value="constitue" style="ellipse;whiteSpace=wrap;html=1;fillColor=#ffe6cc;strokeColor=#d79b00;" parent="1" vertex="1">
          <mxGeometry x="840" y="510" width="80" height="30" as="geometry" />
        </mxCell>
        <mxCell id="axa9aI5JRP2yP6maxEfe-41" value="&lt;b&gt;1, n&lt;br&gt;&lt;/b&gt;" style="text;html=1;strokeColor=none;fillColor=none;align=center;verticalAlign=middle;whiteSpace=wrap;rounded=0;" parent="1" vertex="1">
          <mxGeometry x="910" y="480" width="30" height="20" as="geometry" />
        </mxCell>
        <mxCell id="axa9aI5JRP2yP6maxEfe-43" value="&lt;b&gt;1, 1&lt;br&gt;&lt;/b&gt;" style="text;html=1;strokeColor=none;fillColor=none;align=center;verticalAlign=middle;whiteSpace=wrap;rounded=0;" parent="1" vertex="1">
          <mxGeometry x="950" y="560" width="30" height="20" as="geometry" />
        </mxCell>
        <mxCell id="axa9aI5JRP2yP6maxEfe-46" style="edgeStyle=orthogonalEdgeStyle;rounded=0;orthogonalLoop=1;jettySize=auto;html=1;exitX=1;exitY=0.5;exitDx=0;exitDy=0;entryX=0;entryY=0;entryDx=0;entryDy=0;endArrow=none;endFill=0;" parent="1" source="Xazr9b2hqAeC7u9Wwyo1-22" target="Xazr9b2hqAeC7u9Wwyo1-46" edge="1">
          <mxGeometry relative="1" as="geometry" />
        </mxCell>
        <mxCell id="axa9aI5JRP2yP6maxEfe-9" value="&lt;b&gt;0, n&lt;br&gt;&lt;/b&gt;" style="text;html=1;strokeColor=none;fillColor=none;align=center;verticalAlign=middle;whiteSpace=wrap;rounded=0;" parent="1" vertex="1">
          <mxGeometry x="510" y="365" width="30" height="20" as="geometry" />
        </mxCell>
        <mxCell id="axa9aI5JRP2yP6maxEfe-72" style="edgeStyle=orthogonalEdgeStyle;rounded=0;orthogonalLoop=1;jettySize=auto;html=1;exitX=0.5;exitY=0;exitDx=0;exitDy=0;entryX=1;entryY=1;entryDx=0;entryDy=0;endArrow=none;endFill=0;" parent="1" source="axa9aI5JRP2yP6maxEfe-35" target="axa9aI5JRP2yP6maxEfe-37" edge="1">
          <mxGeometry relative="1" as="geometry" />
        </mxCell>
        <mxCell id="axa9aI5JRP2yP6maxEfe-35" value="Discussion" style="swimlane;fontStyle=0;childLayout=stackLayout;horizontal=1;startSize=30;horizontalStack=0;resizeParent=1;resizeParentMax=0;resizeLast=0;collapsible=1;marginBottom=0;whiteSpace=wrap;html=1;fillColor=#dae8fc;strokeColor=#000000;" parent="1" vertex="1">
          <mxGeometry x="880" y="580" width="120" height="60" as="geometry" />
        </mxCell>
        <mxCell id="axa9aI5JRP2yP6maxEfe-36" value="&lt;u&gt;Identifiant&lt;/u&gt; : Integer" style="text;strokeColor=default;fillColor=#dae8fc;align=left;verticalAlign=middle;spacingLeft=4;spacingRight=4;overflow=hidden;points=[[0,0.5],[1,0.5]];portConstraint=eastwest;rotatable=0;whiteSpace=wrap;html=1;" parent="axa9aI5JRP2yP6maxEfe-35" vertex="1">
          <mxGeometry y="30" width="120" height="30" as="geometry" />
        </mxCell>
        <mxCell id="axa9aI5JRP2yP6maxEfe-77" value="Contenue Numerique" style="swimlane;fontStyle=0;childLayout=stackLayout;horizontal=1;startSize=30;horizontalStack=0;resizeParent=1;resizeParentMax=0;resizeLast=0;collapsible=1;marginBottom=0;whiteSpace=wrap;html=1;fillColor=#dae8fc;strokeColor=#000000;" parent="1" vertex="1">
          <mxGeometry x="780" y="270" width="120" height="60" as="geometry" />
        </mxCell>
        <mxCell id="axa9aI5JRP2yP6maxEfe-78" value="&lt;u&gt;Identifiant&lt;/u&gt; : Integer" style="text;strokeColor=default;fillColor=#dae8fc;align=left;verticalAlign=middle;spacingLeft=4;spacingRight=4;overflow=hidden;points=[[0,0.5],[1,0.5]];portConstraint=eastwest;rotatable=0;whiteSpace=wrap;html=1;" parent="axa9aI5JRP2yP6maxEfe-77" vertex="1">
          <mxGeometry y="30" width="120" height="30" as="geometry" />
        </mxCell>
        <mxCell id="axa9aI5JRP2yP6maxEfe-79" style="edgeStyle=orthogonalEdgeStyle;rounded=0;orthogonalLoop=1;jettySize=auto;html=1;exitX=1;exitY=0.5;exitDx=0;exitDy=0;entryX=0;entryY=0.25;entryDx=0;entryDy=0;endArrow=block;endFill=0;endSize=20;" parent="1" source="vQDiU9HeTUrOOh70G-Bs-11" target="axa9aI5JRP2yP6maxEfe-77" edge="1">
          <mxGeometry relative="1" as="geometry" />
        </mxCell>
        <mxCell id="uyb0U9lrVmD0LcWtQPzE-4" style="edgeStyle=orthogonalEdgeStyle;rounded=0;orthogonalLoop=1;jettySize=auto;html=1;exitX=0.5;exitY=0;exitDx=0;exitDy=0;entryX=0.446;entryY=1.011;entryDx=0;entryDy=0;entryPerimeter=0;endArrow=none;endFill=0;" parent="1" source="uyb0U9lrVmD0LcWtQPzE-2" target="vQDiU9HeTUrOOh70G-Bs-14" edge="1">
          <mxGeometry relative="1" as="geometry" />
        </mxCell>
        <mxCell id="uyb0U9lrVmD0LcWtQPzE-2" value="est aimé" style="ellipse;whiteSpace=wrap;html=1;fillColor=#ffe6cc;strokeColor=#d79b00;" parent="1" vertex="1">
          <mxGeometry x="370" y="400" width="66" height="20" as="geometry" />
        </mxCell>
        <mxCell id="uyb0U9lrVmD0LcWtQPzE-5" value="&lt;b&gt;0, n&lt;br&gt;&lt;/b&gt;" style="text;html=1;strokeColor=none;fillColor=none;align=center;verticalAlign=middle;whiteSpace=wrap;rounded=0;" parent="1" vertex="1">
          <mxGeometry x="434" y="360" width="30" height="20" as="geometry" />
        </mxCell>
        <mxCell id="uyb0U9lrVmD0LcWtQPzE-6" value="&lt;b&gt;0, n&lt;br&gt;&lt;/b&gt;" style="text;html=1;strokeColor=none;fillColor=none;align=center;verticalAlign=middle;whiteSpace=wrap;rounded=0;" parent="1" vertex="1">
          <mxGeometry x="395" y="445" width="30" height="20" as="geometry" />
        </mxCell>
        <mxCell id="5bwaejOtSmUbjBA8IvDs-21" style="edgeStyle=orthogonalEdgeStyle;rounded=0;orthogonalLoop=1;jettySize=auto;html=1;exitX=0.5;exitY=0;exitDx=0;exitDy=0;entryX=0.693;entryY=1.033;entryDx=0;entryDy=0;entryPerimeter=0;endArrow=none;endFill=0;" edge="1" parent="1" source="uyb0U9lrVmD0LcWtQPzE-8" target="Xazr9b2hqAeC7u9Wwyo1-3">
          <mxGeometry relative="1" as="geometry" />
        </mxCell>
        <mxCell id="uyb0U9lrVmD0LcWtQPzE-8" value="s&#39;abonne" style="ellipse;whiteSpace=wrap;html=1;fillColor=#ffe6cc;strokeColor=#d79b00;" parent="1" vertex="1">
          <mxGeometry x="380" y="620" width="80" height="30" as="geometry" />
        </mxCell>
        <mxCell id="uyb0U9lrVmD0LcWtQPzE-11" value="&lt;b&gt;0, n&lt;br&gt;&lt;/b&gt;" style="text;html=1;strokeColor=none;fillColor=none;align=center;verticalAlign=middle;whiteSpace=wrap;rounded=0;" parent="1" vertex="1">
          <mxGeometry x="332.5" y="620" width="30" height="20" as="geometry" />
        </mxCell>
        <mxCell id="uyb0U9lrVmD0LcWtQPzE-12" value="&lt;b&gt;0, n&lt;br&gt;&lt;/b&gt;" style="text;html=1;strokeColor=none;fillColor=none;align=center;verticalAlign=middle;whiteSpace=wrap;rounded=0;" parent="1" vertex="1">
          <mxGeometry x="430" y="600" width="30" height="20" as="geometry" />
        </mxCell>
        <mxCell id="uyb0U9lrVmD0LcWtQPzE-14" value="&lt;b&gt;0, n&lt;br&gt;&lt;/b&gt;" style="text;whiteSpace=wrap;html=1;" parent="1" vertex="1">
          <mxGeometry x="810" y="420" width="50" height="40" as="geometry" />
        </mxCell>
        <mxCell id="uyb0U9lrVmD0LcWtQPzE-15" value="Balise" style="swimlane;fontStyle=0;childLayout=stackLayout;horizontal=1;startSize=30;horizontalStack=0;resizeParent=1;resizeParentMax=0;resizeLast=0;collapsible=1;marginBottom=0;whiteSpace=wrap;html=1;fillColor=#dae8fc;strokeColor=#000000;" parent="1" vertex="1">
          <mxGeometry x="700" y="450" width="90" height="60" as="geometry" />
        </mxCell>
        <mxCell id="uyb0U9lrVmD0LcWtQPzE-16" value="&lt;u&gt;Type&lt;/u&gt; :String" style="text;strokeColor=default;fillColor=#dae8fc;align=left;verticalAlign=middle;spacingLeft=4;spacingRight=4;overflow=hidden;points=[[0,0.5],[1,0.5]];portConstraint=eastwest;rotatable=0;whiteSpace=wrap;html=1;" parent="uyb0U9lrVmD0LcWtQPzE-15" vertex="1">
          <mxGeometry y="30" width="90" height="30" as="geometry" />
        </mxCell>
        <mxCell id="5bwaejOtSmUbjBA8IvDs-15" style="edgeStyle=orthogonalEdgeStyle;rounded=0;orthogonalLoop=1;jettySize=auto;html=1;exitX=0.5;exitY=0;exitDx=0;exitDy=0;entryX=1;entryY=0.5;entryDx=0;entryDy=0;endArrow=none;endFill=0;" edge="1" parent="1" source="uyb0U9lrVmD0LcWtQPzE-20" target="vQDiU9HeTUrOOh70G-Bs-14">
          <mxGeometry relative="1" as="geometry" />
        </mxCell>
        <mxCell id="5bwaejOtSmUbjBA8IvDs-16" style="edgeStyle=orthogonalEdgeStyle;rounded=0;orthogonalLoop=1;jettySize=auto;html=1;exitX=1;exitY=0.5;exitDx=0;exitDy=0;entryX=0.5;entryY=1;entryDx=0;entryDy=0;endArrow=none;endFill=0;" edge="1" parent="1" source="uyb0U9lrVmD0LcWtQPzE-20" target="uyb0U9lrVmD0LcWtQPzE-15">
          <mxGeometry relative="1" as="geometry" />
        </mxCell>
        <mxCell id="5bwaejOtSmUbjBA8IvDs-19" style="edgeStyle=orthogonalEdgeStyle;rounded=0;orthogonalLoop=1;jettySize=auto;html=1;exitX=0;exitY=0.5;exitDx=0;exitDy=0;entryX=0.994;entryY=0.653;entryDx=0;entryDy=0;entryPerimeter=0;endArrow=none;endFill=0;" edge="1" parent="1" source="uyb0U9lrVmD0LcWtQPzE-20" target="Xazr9b2hqAeC7u9Wwyo1-62">
          <mxGeometry relative="1" as="geometry" />
        </mxCell>
        <mxCell id="uyb0U9lrVmD0LcWtQPzE-20" value="marque" style="ellipse;whiteSpace=wrap;html=1;fillColor=#ffe6cc;strokeColor=#d79b00;" parent="1" vertex="1">
          <mxGeometry x="590" y="530" width="80" height="30" as="geometry" />
        </mxCell>
        <mxCell id="uyb0U9lrVmD0LcWtQPzE-26" value="&lt;div&gt;&lt;b&gt;0, 1&lt;/b&gt;&lt;/div&gt;" style="text;html=1;strokeColor=none;fillColor=none;align=center;verticalAlign=middle;whiteSpace=wrap;rounded=0;" parent="1" vertex="1">
          <mxGeometry x="710" y="520" width="30" height="20" as="geometry" />
        </mxCell>
        <mxCell id="uyb0U9lrVmD0LcWtQPzE-27" value="&lt;b&gt;1, 1&lt;br&gt;&lt;/b&gt;" style="text;html=1;strokeColor=none;fillColor=none;align=center;verticalAlign=middle;whiteSpace=wrap;rounded=0;" parent="1" vertex="1">
          <mxGeometry x="464" y="530" width="30" height="20" as="geometry" />
        </mxCell>
        <mxCell id="uyb0U9lrVmD0LcWtQPzE-28" value="&lt;b&gt;0, n&lt;br&gt;&lt;/b&gt;" style="text;html=1;strokeColor=none;fillColor=none;align=center;verticalAlign=middle;whiteSpace=wrap;rounded=0;" parent="1" vertex="1">
          <mxGeometry x="540" y="320" width="30" height="20" as="geometry" />
        </mxCell>
        <mxCell id="uyb0U9lrVmD0LcWtQPzE-29" value="date" style="rounded=0;whiteSpace=wrap;html=1;" parent="1" vertex="1">
          <mxGeometry x="330" y="400" width="35" height="20" as="geometry" />
        </mxCell>
        <mxCell id="5bwaejOtSmUbjBA8IvDs-11" value="&lt;b&gt;1, n&lt;br&gt;&lt;/b&gt;" style="text;html=1;strokeColor=none;fillColor=none;align=center;verticalAlign=middle;whiteSpace=wrap;rounded=0;" vertex="1" parent="1">
          <mxGeometry x="365" y="355" width="30" height="20" as="geometry" />
        </mxCell>
        <mxCell id="Xazr9b2hqAeC7u9Wwyo1-3" value="Prénom&amp;nbsp;&amp;nbsp;&amp;nbsp; :String" style="text;strokeColor=none;fillColor=#dae8fc;align=left;verticalAlign=middle;spacingLeft=4;spacingRight=4;overflow=hidden;points=[[0,0.5],[1,0.5]];portConstraint=eastwest;rotatable=0;whiteSpace=wrap;html=1;" parent="1" vertex="1">
          <mxGeometry x="324" y="550" width="140" height="30" as="geometry" />
        </mxCell>
      </root>
    </mxGraphModel>
  </diagram>
</mxfile>
